<?xml version="1.0" encoding="UTF-8" standalone="no"?>
<svg width="11px" height="14px" viewBox="0 0 11 14" version="1.1" xmlns="http://www.w3.org/2000/svg" xmlns:xlink="http://www.w3.org/1999/xlink">
    <!-- Generator: sketchtool 39.1 (31720) - http://www.bohemiancoding.com/sketch -->
    <title>86FE62C0-8A4D-42DB-8B5E-842901373BED</title>
    <desc>Created with sketchtool.</desc>
    <defs>
        <polygon id="path-1" points="0.000108191177 0.180825263 0.000108191177 13.6352656 10.884357 13.6352656 10.884357 0.180825263"></polygon>
        <polygon id="path-3" points="0.93715198 0.867820368 0.93715198 0.164588749 0.129028798 0.164588749 0.129028798 0.867820368 0.93715198 0.867820368"></polygon>
    </defs>
    <g id="Desktop" stroke="none" stroke-width="1" fill="none" fill-rule="evenodd">
        <g id="2.Featued" transform="translate(-1000.000000, -521.000000)">
            <g id="RHS" transform="translate(960.000000, 58.000000)">
                <g id="Featured" transform="translate(10.000000, 52.000000)">
                    <g id="List-1" transform="translate(30.000000, 85.000000)">
                        <g id="map_small" transform="translate(0.000000, 326.000000)">
                            <path d="M5.60278832,3.01011131 C4.13874531,3.01011131 2.95210447,4.16072218 2.95210447,5.57984388 C2.95210447,6.99917535 4.13874531,8.14957644 5.60278832,8.14957644 C6.93180875,8.14957644 8.02908367,7.2003487 8.22079844,5.96373046 C8.22079844,5.96373046 8.25174111,5.80807808 8.25174111,5.55467099 C8.25174111,5.38433443 8.22079844,5.1959573 8.22079844,5.1959573 C8.02908367,3.95933905 6.93180875,3.01011131 5.60278832,3.01011131" id="Fill-1" fill="#2FB56E"></path>
                            <g id="Group-5" transform="translate(0.000000, 0.029054)">
                                <mask id="mask-2" fill="white">
                                    <use xlink:href="#path-1"></use>
                                </mask>
                                <g id="Clip-4"></g>
                                <path d="M5.45013057,0.180720376 C2.44479604,0.180720376 0.000108191177,2.60843589 0.000108191177,5.59247228 C0.000108191177,7.81880466 2.92905975,11.4346806 4.37622494,13.0853929 L4.74429133,13.4980185 C4.88450709,13.6601739 5.13594339,13.6817806 5.30320695,13.5460568 L5.31034757,13.5403929 C5.47761113,13.4046691 5.49989851,13.1607018 5.35989913,12.9985464 L4.47316424,11.9714925 C4.46905297,11.9666677 4.46407618,11.9633113 4.45974853,11.958906 C2.86652525,10.0585626 0.799640993,7.22220716 0.799640993,5.59205273 C0.799640993,3.04581486 2.88599966,0.974295748 5.45013057,0.974295748 C7.88096995,0.974295748 9.88142482,2.83625055 10.0826604,5.19914586 L10.884357,5.19914586 C10.6805249,2.39824225 8.32152442,0.180720376 5.45013057,0.180720376" id="Fill-3" fill="#2FB56E" mask="url(#mask-2)"></path>
                            </g>
                            <g id="Group-8" transform="translate(9.953588, 5.063632)">
                                <mask id="mask-4" fill="white">
                                    <use xlink:href="#path-3"></use>
                                </mask>
                                <g id="Clip-7"></g>
                                <path d="M0.929859895,0.165218071 L0.129028798,0.164588749 L0.143959181,0.490997228 C0.147854063,0.702239734 0.329398859,0.871737197 0.547295891,0.867751489 C0.76497654,0.863975555 0.930509042,0.701820186 0.935918601,0.47673259 C0.940895395,0.271993081 0.929859895,0.165218071 0.929859895,0.165218071" id="Fill-6" fill="#2FB56E" mask="url(#mask-4)"></path>
                            </g>
                        </g>
                    </g>
                </g>
            </g>
        </g>
    </g>
</svg>