<?xml version="1.0" encoding="UTF-8" standalone="no"?>
<svg width="21px" height="14px" viewBox="0 0 21 14" version="1.1" xmlns="http://www.w3.org/2000/svg" xmlns:xlink="http://www.w3.org/1999/xlink">
    <!-- Generator: sketchtool 39.1 (31720) - http://www.bohemiancoding.com/sketch -->
    <title>9FC8CEA4-DCB2-427B-A290-0E3CC8F6E2D2</title>
    <desc>Created with sketchtool.</desc>
    <defs></defs>
    <g id="Desktop" stroke="none" stroke-width="1" fill="none" fill-rule="evenodd">
        <g id="2.Featued" transform="translate(-1869.000000, -140.000000)" fill="#D8D8D8">
            <g id="RHS" transform="translate(960.000000, 58.000000)">
                <g id="Featured" transform="translate(10.000000, 52.000000)">
                    <path d="M916.59033,38 L899.998746,38 C899.447154,38 899,37.5561352 899,37 C899,36.4477153 899.438615,36 899.998746,36 L916.324649,36 L911.764565,32.1736351 C911.342307,31.8193189 911.285311,31.1920687 911.642788,30.7660444 C911.997789,30.3429698 912.628201,30.2874972 913.05014,30.6415463 L919.494848,36.0492978 C919.576951,36.1181904 919.645244,36.1974016 919.699367,36.2834459 C919.884863,36.4645052 920,36.7177984 920,37 C920,37.2004871 919.9422,37.3871942 919.841768,37.5437058 C919.809646,37.7811879 919.69254,38.0077516 919.494848,38.1736351 L913.05014,43.5813867 C912.627883,43.9357029 912.000264,43.8829128 911.642788,43.4568885 C911.287786,43.0338138 911.342626,42.4033468 911.764565,42.0492978 L916.59033,38 Z" id="Next_Arrow"></path>
                </g>
            </g>
        </g>
    </g>
</svg>