<?xml version="1.0" encoding="UTF-8" standalone="no"?>
<svg width="28px" height="28px" viewBox="0 0 28 28" version="1.1" xmlns="http://www.w3.org/2000/svg" xmlns:xlink="http://www.w3.org/1999/xlink">
    <!-- Generator: sketchtool 39.1 (31720) - http://www.bohemiancoding.com/sketch -->
    <title>788464A5-8B07-4DB2-8E70-5C336E245DB7</title>
    <desc>Created with sketchtool.</desc>
    <defs></defs>
    <g id="Desktop" stroke="none" stroke-width="1" fill="none" fill-rule="evenodd">
        <g id="1.Home" transform="translate(-1005.000000, -921.000000)" fill="#2EB36C">
            <g id="RHS" transform="translate(960.000000, 58.000000)">
                <g id="About-US" transform="translate(10.000000, 552.000000)">
                    <g id="phone_Aboutus" transform="translate(35.000000, 311.000000)">
                        <g id="Capa_1">
                            <g id="Group">
                                <path d="M23.0414205,16.8936533 C22.4445499,16.2721695 21.7246132,15.939891 20.9616034,15.939891 C20.2047468,15.939891 19.4786568,16.2660162 18.857173,16.8875 L16.9127286,18.8257911 C16.7527426,18.7396449 16.5927567,18.6596519 16.4389241,18.5796589 C16.2174051,18.4688994 16.0081927,18.3642932 15.8297468,18.2535338 C14.0083685,17.0967124 12.3531294,15.5891526 10.7655767,13.6385549 C9.9964135,12.6663326 9.47953586,11.847943 9.10418425,11.0172468 C9.60875527,10.5557489 10.0764065,10.0757911 10.5317511,9.61429325 C10.7040436,9.4420007 10.8763361,9.26355485 11.0486287,9.09126231 C12.3408228,7.79906821 12.3408228,6.1253692 11.0486287,4.83317511 L9.36877637,3.15332278 C9.17802391,2.96257032 8.98111814,2.76566456 8.79651899,2.56875879 C8.42732068,2.18725387 8.03966245,1.79344233 7.63969761,1.42424402 C7.042827,0.833526723 6.3290436,0.519708158 5.57834037,0.519708158 C4.82763713,0.519708158 4.10154712,0.833526723 3.4862166,1.42424402 C3.48006329,1.43039733 3.48006329,1.43039733 3.47390999,1.43655063 L1.38178622,3.54713432 C0.59416315,4.33475738 0.144971871,5.294673 0.0465189873,6.40842124 C-0.101160338,8.20518636 0.42802391,9.87888537 0.834142053,10.9741737 C1.8309775,13.6631681 3.32007736,16.1552567 5.54142053,18.8257911 C8.23656821,22.0439698 11.4793601,24.5852848 15.1836498,26.3758966 C16.59891,27.0466069 18.4879747,27.8403833 20.5985584,27.975756 C20.7277778,27.9819093 20.8631505,27.9880626 20.9862166,27.9880626 C22.4076301,27.9880626 23.6013713,27.4773383 24.5366737,26.4620429 C24.542827,26.4497363 24.5551336,26.443583 24.5612869,26.4312764 C24.8812588,26.0436181 25.2504571,25.6928797 25.6381153,25.3175281 C25.9027075,25.0652426 26.1734529,24.8006505 26.438045,24.5237518 C27.0472222,23.8899613 27.3671941,23.1515647 27.3671941,22.3947082 C27.3671941,21.6316983 27.0410689,20.899455 26.4195851,20.2841245 L23.0414205,16.8936533 L23.0414205,16.8936533 Z M25.2443038,23.3730837 C25.2381505,23.3730837 25.2381505,23.379237 25.2443038,23.3730837 C25.0043249,23.6315225 24.7581927,23.8653481 24.4936006,24.1237869 C24.0936357,24.5052918 23.6875176,24.9052567 23.3060127,25.354448 C22.6845288,26.0190049 21.9522855,26.3328235 20.9923699,26.3328235 C20.9000703,26.3328235 20.8016174,26.3328235 20.7093179,26.3266702 C18.8817862,26.2097574 17.183474,25.495974 15.9097398,24.8867968 C12.4269691,23.2007911 9.36877637,20.8071554 6.82746132,17.7735759 C4.72918425,15.2445675 3.32623066,12.9063115 2.39708158,10.395763 C1.82482419,8.86359001 1.61561181,7.6698488 1.70791139,6.54379395 C1.76944444,5.82385724 2.04634318,5.22698664 2.55706751,4.71626231 L4.65534459,2.61798523 C4.95685654,2.33493319 5.27682841,2.18110056 5.59064698,2.18110056 C5.9783052,2.18110056 6.29212377,2.41492616 6.48902954,2.61183193 C6.49518284,2.61798523 6.50133615,2.62413854 6.50748945,2.63029184 C6.88284107,2.98103024 7.23973277,3.34407525 7.61508439,3.73173347 C7.80583685,3.92863924 8.00274262,4.12554501 8.19964838,4.32860408 L9.8795007,6.0084564 C10.5317511,6.66070675 10.5317511,7.26373066 9.8795007,7.91598101 C9.70105485,8.09442686 9.52876231,8.27287271 9.35031646,8.44516526 C8.83343882,8.97434951 8.3411744,9.46661392 7.80583685,9.94657173 C7.79353024,9.95887834 7.78122363,9.96503165 7.77507032,9.97733826 C7.24588608,10.5065225 7.34433896,11.0234001 7.45509845,11.3741385 C7.46125176,11.3925985 7.46740506,11.4110584 7.47355837,11.4295183 C7.91044304,12.4878868 8.52577356,13.4847222 9.46107595,14.6723101 L9.46722925,14.6784634 C11.1655415,16.7705872 12.9561533,18.4012131 14.9313643,19.650334 C15.1836498,19.81032 15.4420886,19.9395394 15.6882208,20.0626055 C15.9097398,20.173365 16.1189522,20.2779712 16.297398,20.3887307 C16.3220113,20.4010373 16.3466245,20.4194972 16.3712377,20.4318038 C16.5804501,20.53641 16.7773558,20.5856364 16.9804149,20.5856364 C17.4911392,20.5856364 17.8111111,20.2656646 17.9157173,20.1610584 L20.0201477,18.056628 C20.2293601,17.8474156 20.5616385,17.5951301 20.9492968,17.5951301 C21.3308017,17.5951301 21.6446203,17.835109 21.8353727,18.0443214 C21.841526,18.0504747 21.841526,18.0504747 21.8476793,18.056628 L25.2381505,21.4470992 C25.8719409,22.0747363 25.8719409,22.7208333 25.2443038,23.3730837 L25.2443038,23.3730837 Z" id="Shape"></path>
                            </g>
                        </g>
                    </g>
                </g>
            </g>
        </g>
    </g>
</svg>