<?xml version="1.0" encoding="UTF-8" standalone="no"?>
<svg width="21px" height="14px" viewBox="0 0 21 14" version="1.1" xmlns="http://www.w3.org/2000/svg" xmlns:xlink="http://www.w3.org/1999/xlink">
    <!-- Generator: sketchtool 39.1 (31720) - http://www.bohemiancoding.com/sketch -->
    <title>E4AE2CF9-8D47-4979-A62D-337DC864B1BC</title>
    <desc>Created with sketchtool.</desc>
    <defs></defs>
    <g id="Desktop" stroke="none" stroke-width="1" fill="none" fill-rule="evenodd">
        <g id="2.Featued" transform="translate(-1830.000000, -140.000000)" fill="#D8D8D8">
            <g id="RHS" transform="translate(960.000000, 58.000000)">
                <g id="Featured" transform="translate(10.000000, 52.000000)">
                    <path d="M877.59033,37.5915253 L860.998746,37.5915253 C860.447154,37.5915253 860,37.1476605 860,36.5915253 C860,36.0392406 860.438615,35.5915253 860.998746,35.5915253 L877.324649,35.5915253 L872.764565,31.7651605 C872.342307,31.4108442 872.285311,30.783594 872.642788,30.3575698 C872.997789,29.9344951 873.628201,29.8790225 874.05014,30.2330716 L880.494848,35.6408231 C880.576951,35.7097157 880.645244,35.7889269 880.699367,35.8749712 C880.884863,36.0560305 881,36.3093237 881,36.5915253 C881,36.7920125 880.9422,36.9787195 880.841768,37.1352312 C880.809646,37.3727132 880.69254,37.5992769 880.494848,37.7651605 L874.05014,43.172912 C873.627883,43.5272282 873.000264,43.4744381 872.642788,43.0484138 C872.287786,42.6253391 872.342626,41.9948722 872.764565,41.6408231 L877.59033,37.5915253 Z" id="Prev_Arrow" transform="translate(870.500000, 36.703530) scale(-1, 1) translate(-870.500000, -36.703530) "></path>
                </g>
            </g>
        </g>
    </g>
</svg>