<?xml version="1.0" encoding="UTF-8" standalone="no"?>
<svg width="17px" height="15px" viewBox="0 0 17 15" version="1.1" xmlns="http://www.w3.org/2000/svg" xmlns:xlink="http://www.w3.org/1999/xlink">
    <!-- Generator: sketchtool 39.1 (31720) - http://www.bohemiancoding.com/sketch -->
    <title>6C6606DF-DA7C-4D18-980C-ABC299BE07AD</title>
    <desc>Created with sketchtool.</desc>
    <defs></defs>
    <g id="Desktop" stroke="none" stroke-width="1" fill="none" fill-rule="evenodd">
        <g id="2.Featued" transform="translate(-999.000000, -484.000000)" stroke="#2FB56E" fill="#2FB56E">
            <g id="RHS" transform="translate(960.000000, 58.000000)">
                <g id="Featured" transform="translate(10.000000, 52.000000)">
                    <g id="List-1" transform="translate(30.000000, 85.000000)">
                        <g id="bath_small" transform="translate(0.000000, 290.000000)">
                            <path d="M13.8165437,6.29636299 L1.89615911,6.29636299 L1.89615911,1.38779389 C2.03276715,0.575919952 2.63376518,0.575919944 2.91007514,0.575919944 C3.1863851,0.575919944 3.83588249,0.575919952 3.83588253,1.38779389 L3.83588253,1.43796744 C3.55374145,1.52876596 3.34995602,1.78316383 3.34995602,2.08223759 L3.34995602,2.54520005 C3.34995602,2.66504946 3.45193985,2.76221371 3.57773407,2.76221371 L4.54958709,2.76221371 C4.67538131,2.76221371 4.77736513,2.66504946 4.77736513,2.54520005 L4.77736513,2.08223759 C4.77736513,1.78316383 4.57357971,1.52876596 4.29143863,1.43796744 L4.29143863,1.38779389 C4.36491224,0.240729138 3.43757873,0.141892633 2.91007514,0.141892633 C2.38257154,0.141892633 1.44060301,0.250608708 1.44060301,1.38779389 L1.44060301,6.29636299 L1.18245456,6.29636299 C0.849582763,6.29636299 0.489818896,6.78934624 0.411284336,7.2804971 C0.396970928,7.37001237 0.38936215,7.44737252 0.38936215,7.50517339 C0.38936215,7.82288138 0.698653978,8.45439509 1.0082499,8.52867163 L1.86020055,11.1260647 C2.04032743,11.675225 2.50289909,12.0774815 3.06894273,12.2077186 L2.91007514,12.661769 C2.8702899,12.7754842 2.93479665,12.8983718 3.05415235,12.9362768 C3.07805386,12.9438579 3.10231981,12.9474747 3.12622132,12.9474747 C3.2215844,12.9474747 3.31044821,12.8899517 3.34227639,12.7990374 L3.53333662,12.2529732 L11.4657224,12.2529732 L11.6567826,12.7990374 C11.6886108,12.8899806 11.7774746,12.9474747 11.8728377,12.9474747 C11.8967088,12.9474747 11.9210052,12.9438579 11.9449067,12.9362768 C12.0642624,12.8983718 12.1287387,12.7754842 12.0889839,12.661769 L11.9301163,12.2077186 C12.4961599,12.0774815 12.9587316,11.675225 13.1388585,11.1260647 L13.9908091,8.52870056 C14.3003443,8.45439509 14.6494203,7.82288138 14.6494203,7.50517339 C14.6494203,7.13023166 14.2100834,6.29636299 13.8165437,6.29636299 Z M3.30309176,2.80686325 L3.30309176,2.08223759 C3.30309176,1.68267047 3.64427398,1.35761192 4.06366058,1.35761192 C4.48304718,1.35761192 4.8242294,1.68267047 4.8242294,2.08223759 L4.8242294,2.80686325 L3.30309176,2.80686325 Z M13.3523831,11.097805 C13.1709566,11.6509531 12.6403726,12.0225929 12.0321222,12.0225929 L2.96687229,12.0225929 C2.35858774,12.0225929 1.82803793,11.6509531 1.64661134,11.0978375 L0.743884288,8.34556858 L14.2551443,8.34556858 L13.3523831,11.097805 L13.3523831,11.097805 Z M14.4484543,8.1852707 C14.4482205,8.1852707 14.4479532,8.1853615 14.4477194,8.1853615 L0.55147323,8.1853615 C0.551139164,8.1853615 0.550771693,8.1852707 0.550437627,8.1852707 C0.394095087,8.1844535 0.267016662,7.83868707 0.267016662,7.41356143 C0.267016662,6.98798178 0.394395745,6.64176135 0.550972132,6.64176135 L14.4480869,6.64176135 C14.6046633,6.64176135 14.7320423,6.98798178 14.7320423,7.41356143 C14.7320089,7.83877787 14.6048637,8.1847259 14.4484543,8.1852707 L14.4484543,8.1852707 Z" id="Shape"></path>
                        </g>
                    </g>
                </g>
            </g>
        </g>
    </g>
</svg>