<?xml version="1.0" encoding="UTF-8" standalone="no"?>
<svg width="19px" height="14px" viewBox="0 0 19 14" version="1.1" xmlns="http://www.w3.org/2000/svg" xmlns:xlink="http://www.w3.org/1999/xlink">
    <!-- Generator: sketchtool 39.1 (31720) - http://www.bohemiancoding.com/sketch -->
    <title>F67601F8-D122-404A-A8BE-4E90490F7B13</title>
    <desc>Created with sketchtool.</desc>
    <defs></defs>
    <g id="Desktop" stroke="none" stroke-width="1" fill="none" fill-rule="evenodd">
        <g id="2.Featued" transform="translate(-1000.000000, -444.000000)" fill="#2FB56E">
            <g id="RHS" transform="translate(960.000000, 58.000000)">
                <g id="Featured" transform="translate(10.000000, 52.000000)">
                    <g id="List-1" transform="translate(30.000000, 85.000000)">
                        <path d="M5.0407,255.89296 C5.0407,255.893197 5.0407,255.892249 5.0407,255.89296 C5.0936625,255.87732 5.0407,255.892249 5.0407,255.89296 C5.0407,255.893434 5.0407,255.892249 5.0407,255.89296 C5.0407,256.241304 5.3295,256.539412 5.6788625,256.539412 C6.029175,256.539412 6.3403,256.323296 6.3433875,255.974951 C6.35075,255.690114 6.4911125,255.417837 6.987725,255.417837 L17.575,255.417837 L17.575,258.972374 L1.425,258.972374 L1.425,253.996021 L3.2193125,253.996021 C3.2245375,253.996021 3.718775,254.024695 4.19045,254.260005 C4.79845,254.563326 5.0407,255.103378 5.0407,255.89296 M18.2875,251.506423 C17.93505,251.506423 17.575,251.791971 17.575,252.143159 L17.575,253.996021 L6.98725,253.996021 C6.60155,253.996021 6.258125,254.093653 5.9728875,254.264744 C5.7,253.782038 5.2915,253.426111 4.760925,253.16189 C4.01945,252.79127 3.2991125,252.811175 3.2193125,252.811175 L1.425,252.811175 L1.425,249.636736 C1.425,249.285311 1.0647125,249 0.7125,249 C0.3602875,249 0,249.285074 0,249.636736 L0,262.168852 C0,262.520277 0.3602875,262.805588 0.7125,262.805588 C1.0647125,262.805588 1.425,262.520514 1.425,262.168852 L1.425,260.39419 L17.575,260.39419 L17.575,262.168615 C17.575,262.52004 17.93505,262.805351 18.2875,262.805351 C18.639475,262.805351 19,262.520277 19,262.168615 L19,252.143159 C19,251.791971 18.639475,251.506423 18.2875,251.506423" id="Bed_small"></path>
                    </g>
                </g>
            </g>
        </g>
    </g>
</svg>