<?xml version="1.0" encoding="UTF-8" standalone="no"?>
<svg width="19px" height="18px" viewBox="0 0 19 18" version="1.1" xmlns="http://www.w3.org/2000/svg" xmlns:xlink="http://www.w3.org/1999/xlink">
    <!-- Generator: sketchtool 39.1 (31720) - http://www.bohemiancoding.com/sketch -->
    <title>D1862A28-8C00-4239-B8C3-D5233EBF58BD</title>
    <desc>Created with sketchtool.</desc>
    <defs></defs>
    <g id="Desktop" stroke="none" stroke-width="1" fill="none" fill-rule="evenodd">
        <g id="2.Featued" transform="translate(-1242.000000, -519.000000)" fill="#FFFFFF">
            <g id="RHS" transform="translate(960.000000, 58.000000)">
                <g id="Featured" transform="translate(10.000000, 52.000000)">
                    <g id="List-1" transform="translate(30.000000, 85.000000)">
                        <g id="fav_Desktop" transform="translate(243.000000, 324.000000)">
                            <path d="M12.1661908,10.6845333 L12.8278395,14.7114428 C12.8611743,14.9141369 12.7857888,15.1077337 12.626302,15.2287118 C12.4663564,15.3495303 12.2674183,15.3642136 12.0927932,15.2692506 L8.62781498,13.3674372 C8.46098836,13.2761451 8.27703564,13.2300202 8.09369456,13.2300202 C7.91050639,13.2300202 7.72685949,13.2761451 7.55972704,13.3677564 L4.0953605,15.2692506 C3.92012374,15.3642136 3.72103276,15.3495303 3.5615459,15.2287118 C3.40205904,15.1077337 3.32697941,14.9144561 3.36000833,14.7114428 L4.02165708,10.6845333 C4.08542124,10.2959032 3.96202153,9.89929309 3.69167372,9.62445903 L0.888191361,6.77237733 C0.746900989,6.62857623 0.698886728,6.42588212 0.760051391,6.23021048 C0.820910231,6.03437924 0.97382189,5.89983504 1.16893717,5.87014913 L5.04264823,5.28249581 C5.41667014,5.22599683 5.73992539,4.98132748 5.90675201,4.62749059 L7.6390882,0.963355633 C7.72624784,0.778856111 7.89643852,0.668730964 8.09338873,0.668730964 C8.29079769,0.668730964 8.46052963,0.778856111 8.5479951,0.963355633 L10.2803313,4.62749059 C10.4473108,4.98132748 10.7702602,5.22599683 11.1441292,5.28249581 L15.018299,5.87014913 C15.2134143,5.89983504 15.3661731,6.03437924 15.4270319,6.23021048 C15.4880437,6.42588212 15.4401823,6.62857623 15.2988919,6.77237733 L12.4958683,9.62413983 C12.2255205,9.89929309 12.1021208,10.295584 12.1661908,10.6845333 L12.1661908,10.6845333 Z M15.7464644,7.25118232 C16.0614624,6.93086178 16.1726291,6.46067528 16.0368436,6.02368593 C15.9005993,5.58653698 15.5459972,5.27451573 15.1101989,5.20828104 L11.2361821,4.62078732 C11.0710375,4.59572986 10.9285238,4.48767954 10.8548204,4.33158911 L9.12279002,0.667454151 C8.9284393,0.255841464 8.5336214,0 8.09369456,0 C7.65422645,0 7.25940855,0.255841464 7.06505783,0.667454151 L5.33272164,4.33158911 C5.25901822,4.48767954 5.11604582,4.59572986 4.95105414,4.62078732 L1.07688435,5.20860024 C0.641544855,5.27451573 0.286942718,5.58653698 0.15069843,6.02368593 C0.0149128768,6.46067528 0.126079653,6.93086178 0.440924759,7.25118232 L3.24410129,10.1029448 C3.3635253,10.2247209 3.41842058,10.3999635 3.39013193,10.5712161 L2.72848318,14.5984448 C2.65416811,15.0509155 2.82879323,15.4992366 3.18477157,15.7694422 C3.54044409,16.039967 4.00330768,16.0750794 4.39323241,15.8607344 L7.85790478,13.9593998 C8.00561744,13.8784817 8.18192458,13.8784817 8.32948434,13.9593998 L11.7946154,15.8607344 C11.9637357,15.9537821 12.1469239,15.9995878 12.3291946,15.9995878 C12.5660548,15.9995878 12.8018445,15.9223406 13.0030763,15.7694422 C13.3590546,15.4992366 13.5336797,15.0509155 13.4592118,14.5984448 L12.7974101,10.5715353 C12.7691214,10.3999635 12.8240167,10.2250401 12.9434407,10.103264 L15.7464644,7.25118232 Z" id="Page-1"></path>
                        </g>
                    </g>
                </g>
            </g>
        </g>
    </g>
</svg>