<?xml version="1.0" encoding="UTF-8" standalone="no"?>
<svg width="26px" height="33px" viewBox="0 0 26 33" version="1.1" xmlns="http://www.w3.org/2000/svg" xmlns:xlink="http://www.w3.org/1999/xlink">
    <!-- Generator: sketchtool 39.1 (31720) - http://www.bohemiancoding.com/sketch -->
    <title>23A853CC-817E-4DE7-8BE2-F1A3FF3E5EBE</title>
    <desc>Created with sketchtool.</desc>
    <defs>
        <polygon id="path-1" points="0.00025210084 0.424469697 0.00025210084 32.0074582 25.3621008 32.0074582 25.3621008 0.424469697"></polygon>
        <polygon id="path-3" points="2.18369748 2.03712381 2.18369748 0.386356061 0.300655462 0.386356061 0.300655462 2.03712381 2.18369748 2.03712381"></polygon>
    </defs>
    <g id="Desktop" stroke="none" stroke-width="1" fill="none" fill-rule="evenodd">
        <g id="1.Home" transform="translate(-1003.000000, -855.000000)">
            <g id="RHS" transform="translate(960.000000, 58.000000)">
                <g id="About-US" transform="translate(10.000000, 552.000000)">
                    <g id="Location_Aboutus" transform="translate(33.000000, 245.000000)">
                        <path d="M13.0552941,7.06594318 C9.64386555,7.06594318 6.87882353,9.76689015 6.87882353,13.0981402 C6.87882353,16.4298826 9.64386555,19.1303371 13.0552941,19.1303371 C16.1521008,19.1303371 18.7089076,16.9021174 19.1556303,13.9992765 C19.1556303,13.9992765 19.2277311,13.6338977 19.2277311,13.0390492 C19.2277311,12.6392008 19.1556303,12.1970038 19.1556303,12.1970038 C18.7089076,9.29416288 16.1521008,7.06594318 13.0552941,7.06594318" id="Fill-1" fill="#2FB56E"></path>
                        <g id="Group-5" transform="translate(0.000000, 0.068201)">
                            <mask id="mask-2" fill="white">
                                <use xlink:href="#path-1"></use>
                            </mask>
                            <g id="Clip-4"></g>
                            <path d="M12.6995798,0.424223485 C5.69672269,0.424223485 0.00025210084,6.12304924 0.00025210084,13.1277841 C0.00025210084,18.3538826 6.82512605,26.8417992 10.1972269,30.7166856 L11.0548739,31.6852841 C11.3815966,32.065928 11.967479,32.1166477 12.3572269,31.7980492 L12.3738655,31.7847538 C12.7636134,31.4661553 12.8155462,30.8934659 12.4893277,30.512822 L10.4231092,28.1019129 C10.4135294,28.0905871 10.4019328,28.0827083 10.3918487,28.0723674 C6.67941176,23.6114962 1.86327731,16.953428 1.86327731,13.1267992 C1.86327731,7.14975379 6.72478992,2.28706439 12.6995798,2.28706439 C18.3637815,2.28706439 23.0251261,6.65782197 23.4940336,12.2044886 L25.3621008,12.2044886 C24.8871429,5.62964015 19.3903361,0.424223485 12.6995798,0.424223485" id="Fill-3" fill="#2FB56E" mask="url(#mask-2)"></path>
                        </g>
                        <g id="Group-8" transform="translate(23.193277, 11.886383)">
                            <mask id="mask-4" fill="white">
                                <use xlink:href="#path-3"></use>
                            </mask>
                            <g id="Clip-7"></g>
                            <path d="M2.16670588,0.387833333 L0.300655462,0.386356061 L0.335445378,1.15256818 C0.344521008,1.64843939 0.767546218,2.04631818 1.27527731,2.03696212 C1.7825042,2.02809848 2.16821849,1.64745455 2.18082353,1.11908333 C2.19242017,0.638477273 2.16670588,0.387833333 2.16670588,0.387833333" id="Fill-6" fill="#2FB56E" mask="url(#mask-4)"></path>
                        </g>
                    </g>
                </g>
            </g>
        </g>
    </g>
</svg>